<svg xmlns="http://www.w3.org/2000/svg" viewBox="0 0 111.97 119.47"><defs><style>.cls-1{fill:#f2dac2;}.cls-2{fill:#eaeaea;}.cls-3{fill:#c060a1;}</style></defs><g id="Layer_2" data-name="Layer 2"><g id="Layer_1-2" data-name="Layer 1"><ellipse id="svg_3" data-name="svg 3" class="cls-1" cx="46.8" cy="51.18" rx="40.25" ry="41.01"/><path id="svg_4" data-name="svg 4" class="cls-2" d="M23.51,54.9a4.82,4.82,0,0,1-4.65-5c0-16.46,12.52-29.8,27.94-29.82a4.82,4.82,0,0,1,4.66,5,4.82,4.82,0,0,1-4.66,5c-10.29,0-18.63,8.9-18.63,19.88A4.82,4.82,0,0,1,23.51,54.9Z"/><path id="svg_5" data-name="svg 5" class="cls-3" d="M88.06,72.91c12-24.37,3.12-54.47-19.73-67.22s-51-3.34-63,21S2.21,81.2,25.05,94a44.08,44.08,0,0,0,43.28,0L88.15,115.1a13.33,13.33,0,0,0,19.72,0,15.58,15.58,0,0,0,0-21Zm-78.52-23c0-22,16.68-39.76,37.26-39.76S84.07,28,84.07,49.93,67.38,89.69,46.8,89.69,9.56,71.88,9.54,49.93Zm91.76,58.19a4.46,4.46,0,0,1-6.52,0L76.3,88.4a48.56,48.56,0,0,0,6.52-7l18.51,19.71a5.1,5.1,0,0,1,.08,6.86l-.13.13Z"/></g></g></svg>